<svg width="60" height="60" viewBox="0 0 60 60" fill="none" xmlns="http://www.w3.org/2000/svg">
<circle cx="30" cy="30" r="30" fill="white"/>
<g clip-path="url(#clip0_4386_14913)">
<path d="M39.3117 26.4409H17.2466C16.9704 26.4409 16.6969 26.4953 16.4416 26.601C16.1864 26.7068 15.9545 26.8617 15.7592 27.057C15.5639 27.2524 15.4089 27.4843 15.3032 27.7395C15.1975 27.9947 15.1431 28.2682 15.1431 28.5445V40.4585C15.1431 41.0164 15.3647 41.5514 15.7592 41.9459C16.1537 42.3404 16.6887 42.5621 17.2466 42.5621H39.3117C39.588 42.5621 39.8615 42.5077 40.1167 42.4019C40.3719 42.2962 40.6037 42.1413 40.799 41.9459C40.9943 41.7506 41.1492 41.5187 41.2549 41.2635C41.3605 41.0082 41.4149 40.7347 41.4148 40.4585V28.5445C41.4149 28.2683 41.3605 27.9947 41.2549 27.7395C41.1492 27.4843 40.9943 27.2524 40.799 27.0571C40.6037 26.8617 40.3719 26.7068 40.1167 26.6011C39.8615 26.4953 39.588 26.4409 39.3117 26.4409ZM21.2128 38.5413H17.7215C17.5462 38.5413 17.3782 38.4717 17.2542 38.3478C17.1303 38.2239 17.0607 38.0558 17.0607 37.8805C17.0607 37.7053 17.1303 37.5372 17.2542 37.4133C17.3782 37.2893 17.5462 37.2197 17.7215 37.2197H21.2128C21.3881 37.2197 21.5562 37.2893 21.6801 37.4133C21.804 37.5372 21.8736 37.7053 21.8736 37.8805C21.8736 38.0558 21.804 38.2239 21.6801 38.3478C21.5562 38.4717 21.3881 38.5413 21.2128 38.5413ZM21.9375 33.8346C21.9375 34.0732 21.8427 34.302 21.6741 34.4708C21.5054 34.6395 21.2767 34.7344 21.0381 34.7345H17.8967C17.7785 34.7345 17.6615 34.7112 17.5524 34.666C17.4432 34.6208 17.344 34.5545 17.2604 34.4709C17.0917 34.3022 16.9969 34.0733 16.9969 33.8346V31.2315C16.9969 31.1134 17.0201 30.9964 17.0654 30.8872C17.1106 30.7781 17.1769 30.6789 17.2604 30.5954C17.344 30.5118 17.4432 30.4456 17.5524 30.4004C17.6616 30.3553 17.7786 30.332 17.8967 30.3321H21.0381C21.1562 30.3321 21.2732 30.3554 21.3823 30.4006C21.4914 30.4458 21.5905 30.512 21.6741 30.5955C21.7576 30.679 21.8238 30.7782 21.869 30.8873C21.9142 30.9964 21.9375 31.1134 21.9375 31.2315V33.8346ZM27.0874 38.5413H23.596C23.4208 38.5413 23.2527 38.4717 23.1288 38.3478C23.0048 38.2239 22.9352 38.0558 22.9352 37.8805C22.9352 37.7053 23.0048 37.5372 23.1288 37.4133C23.2527 37.2893 23.4208 37.2197 23.596 37.2197H27.0874C27.2626 37.2197 27.4307 37.2893 27.5546 37.4133C27.6785 37.5372 27.7482 37.7053 27.7482 37.8805C27.7482 38.0558 27.6785 38.2239 27.5546 38.3478C27.4307 38.4717 27.2626 38.5413 27.0874 38.5413ZM32.9619 38.5413H29.4705C29.2953 38.5413 29.1272 38.4717 29.0033 38.3478C28.8794 38.2239 28.8097 38.0558 28.8097 37.8805C28.8097 37.7053 28.8794 37.5372 29.0033 37.4133C29.1272 37.2893 29.2953 37.2197 29.4705 37.2197H32.9619C33.1371 37.2197 33.3052 37.2893 33.4291 37.4133C33.5531 37.5372 33.6227 37.7053 33.6227 37.8805C33.6227 38.0558 33.5531 38.2239 33.4291 38.3478C33.3052 38.4717 33.1371 38.5413 32.9619 38.5413ZM38.8364 38.5413H35.3455C35.1703 38.5413 35.0022 38.4717 34.8783 38.3478C34.7543 38.2239 34.6847 38.0558 34.6847 37.8805C34.6847 37.7053 34.7543 37.5372 34.8783 37.4133C35.0022 37.2893 35.1703 37.2197 35.3455 37.2197H38.8364C39.0117 37.2197 39.1797 37.2893 39.3037 37.4133C39.4276 37.5372 39.4972 37.7053 39.4972 37.8805C39.4972 38.0558 39.4276 38.2239 39.3037 38.3478C39.1797 38.4717 39.0117 38.5413 38.8364 38.5413ZM38.8364 31.3345H32.4409C32.2656 31.3345 32.0976 31.2649 31.9736 31.1409C31.8497 31.017 31.7801 30.8489 31.7801 30.6737C31.7801 30.4984 31.8497 30.3304 31.9736 30.2064C32.0976 30.0825 32.2656 30.0129 32.4409 30.0129H38.8364C39.0117 30.0129 39.1797 30.0825 39.3037 30.2064C39.4276 30.3304 39.4972 30.4984 39.4972 30.6737C39.4972 30.8489 39.4276 31.017 39.3037 31.1409C39.1797 31.2649 39.0117 31.3345 38.8364 31.3345Z" fill="black"/>
<path d="M45.7132 18.1373C45.7132 17.861 45.6587 17.5874 45.553 17.3322C45.4472 17.0769 45.2923 16.845 45.0969 16.6496C44.9015 16.4543 44.6695 16.2994 44.4143 16.1937C44.159 16.088 43.8854 16.0336 43.6091 16.0337H21.544C21.2678 16.0337 20.9943 16.0881 20.7391 16.1938C20.4839 16.2995 20.252 16.4545 20.0567 16.6498C19.8614 16.8452 19.7065 17.0771 19.6009 17.3323C19.4952 17.5875 19.4409 17.861 19.4409 18.1373V19.9146H45.7132V18.1373Z" fill="black"/>
<path d="M19.4402 22.8374V25.7803H34.9117C34.9467 25.5572 35.0602 25.354 35.232 25.2074C35.4037 25.0609 35.6222 24.9806 35.8479 24.981H40.6394C40.8905 24.9814 41.1311 25.0814 41.3084 25.259C41.4858 25.4367 41.5854 25.6774 41.5854 25.9284V26.9793C41.9052 27.4393 42.0763 27.9863 42.0757 28.5465V32.1562H43.6098C43.8861 32.1561 44.1598 32.1016 44.415 31.9958C44.6703 31.89 44.9023 31.7349 45.0976 31.5394C45.2929 31.344 45.4479 31.1119 45.5535 30.8566C45.6592 30.6012 45.7135 30.3276 45.7134 30.0512V22.8374H19.4402Z" fill="black"/>
</g>
<defs>
<clipPath id="clip0_4386_14913">
<rect width="30.5702" height="26.529" fill="white" transform="translate(15.144 16.0337)"/>
</clipPath>
</defs>
</svg>
